<svg width="270" height="200" viewBox="0 0 270 200" fill="none" xmlns="http://www.w3.org/2000/svg">
<rect width="270" height="200" rx="20" fill="#084C61"/>
<path fill-rule="evenodd" clip-rule="evenodd" d="M138.929 69.4702H138.925C138.919 69.4702 138.916 69.4722 138.912 69.4722C138.898 69.4722 138.886 69.4741 138.873 69.4741C138.644 69.5032 138.464 69.6855 138.438 69.9164C136.237 81.2234 129.956 88.3616 118.027 90.336C117.811 90.3535 117.633 90.5106 117.586 90.7201C117.586 90.722 117.584 90.724 117.584 90.7259C117.582 90.7395 117.579 90.755 117.579 90.7686C117.577 90.7725 117.577 90.7763 117.577 90.7802C117.575 90.7919 117.575 90.8035 117.575 90.8151V90.8365V90.8617C117.575 90.8733 117.577 90.885 117.579 90.8966C117.579 90.9005 117.579 90.9024 117.581 90.9063C117.582 90.9218 117.586 90.9373 117.588 90.9529C117.641 91.1585 117.819 91.3098 118.031 91.3253C129.954 93.3 136.233 100.436 138.437 111.737V111.739C138.46 111.976 138.646 112.164 138.885 112.187H138.889H138.918H138.941H138.953C139.199 112.177 139.403 111.989 139.428 111.743C141.635 100.436 147.91 93.2975 159.838 91.3232C160.054 91.3057 160.234 91.1486 160.28 90.9372C160.28 90.9352 160.282 90.9352 160.282 90.9333C160.284 90.9178 160.288 90.9042 160.288 90.8906C160.29 90.8867 160.29 90.8828 160.29 90.879C160.292 90.8673 160.292 90.8557 160.292 90.844V90.8208V90.7975C160.292 90.7859 160.29 90.7742 160.288 90.7626C160.288 90.7587 160.288 90.7548 160.286 90.7509C160.284 90.7354 160.282 90.7199 160.279 90.7063C160.226 90.4988 160.048 90.3494 159.836 90.3319C147.913 88.3573 141.638 81.2228 139.43 69.9202C139.407 69.6836 139.221 69.4954 138.982 69.4722H138.978C138.968 69.4702 138.959 69.4702 138.949 69.4702H138.93L138.929 69.4702Z" fill="white"/>
<path fill-rule="evenodd" clip-rule="evenodd" d="M112.809 106.711H112.807C112.804 106.711 112.801 106.712 112.799 106.712C112.792 106.712 112.785 106.713 112.778 106.713C112.652 106.729 112.552 106.83 112.538 106.957C111.323 113.199 107.855 117.14 101.269 118.23C101.15 118.24 101.052 118.327 101.026 118.442C101.026 118.444 101.025 118.445 101.025 118.446C101.024 118.453 101.022 118.462 101.022 118.469C101.021 118.471 101.021 118.474 101.021 118.476C101.02 118.482 101.02 118.489 101.02 118.495V118.507V118.521C101.02 118.527 101.021 118.533 101.022 118.54C101.022 118.542 101.022 118.543 101.023 118.545C101.024 118.554 101.026 118.562 101.027 118.571C101.056 118.684 101.154 118.768 101.271 118.777C107.854 119.867 111.32 123.807 112.537 130.046V130.047C112.55 130.177 112.653 130.281 112.785 130.294H112.787H112.803H112.816H112.822C112.958 130.289 113.07 130.185 113.084 130.049C114.303 123.806 117.767 119.865 124.353 118.775C124.471 118.766 124.571 118.679 124.597 118.562C124.597 118.561 124.598 118.561 124.598 118.56C124.599 118.552 124.601 118.544 124.601 118.537C124.602 118.534 124.602 118.532 124.602 118.53C124.603 118.524 124.603 118.517 124.603 118.511V118.498V118.485C124.603 118.479 124.602 118.472 124.601 118.466C124.601 118.464 124.601 118.462 124.6 118.459C124.599 118.451 124.598 118.442 124.596 118.435C124.567 118.32 124.468 118.238 124.351 118.228C117.769 117.138 114.304 113.199 113.085 106.959C113.073 106.829 112.97 106.725 112.838 106.712H112.836C112.831 106.711 112.825 106.711 112.82 106.711H112.809L112.809 106.711Z" fill="white"/>
<path fill-rule="evenodd" clip-rule="evenodd" d="M104.016 73.3278H104.015C104.013 73.3278 104.012 73.3284 104.011 73.3284C104.006 73.3284 104.003 73.329 103.998 73.329C103.924 73.3384 103.866 73.3973 103.858 73.4718C103.147 77.123 101.119 79.4281 97.2666 80.0657C97.197 80.0713 97.1394 80.122 97.1244 80.1897C97.1244 80.1903 97.1237 80.1909 97.1237 80.1916C97.1231 80.196 97.1219 80.201 97.1219 80.2054C97.1212 80.2066 97.1212 80.2079 97.1212 80.2091C97.1206 80.2129 97.1206 80.2166 97.1206 80.2204V80.2273V80.2354C97.1206 80.2392 97.1212 80.2429 97.1219 80.2467C97.1219 80.2479 97.1219 80.2486 97.1225 80.2498C97.1231 80.2548 97.1244 80.2599 97.125 80.2649C97.1419 80.3313 97.1995 80.3801 97.2678 80.3851C101.118 81.0228 103.146 83.3273 103.857 86.9764V86.977C103.865 87.0535 103.925 87.1142 104.002 87.1217H104.003H104.013H104.02H104.024C104.103 87.1186 104.169 87.0578 104.177 86.9783C104.89 83.3271 106.917 81.022 110.768 80.3844C110.838 80.3788 110.896 80.3281 110.911 80.2598C110.911 80.2592 110.912 80.2592 110.912 80.2585C110.912 80.2535 110.914 80.2491 110.914 80.2448C110.914 80.2435 110.914 80.2423 110.914 80.241C110.915 80.2372 110.915 80.2335 110.915 80.2297V80.2222V80.2147C110.915 80.2109 110.914 80.2072 110.914 80.2034C110.914 80.2022 110.914 80.2009 110.913 80.1997C110.912 80.1946 110.912 80.1896 110.91 80.1853C110.893 80.1182 110.836 80.07 110.768 80.0644C106.917 79.4267 104.891 77.1229 104.178 73.4731C104.171 73.3967 104.11 73.3359 104.033 73.3284H104.032C104.029 73.3278 104.026 73.3278 104.023 73.3278H104.016L104.016 73.3278Z" fill="white"/>
</svg>
