<svg width="228" height="230" viewBox="0 0 228 230" fill="none" preserveAspectRatio="xMidYMid meet" xmlns="http://www.w3.org/2000/svg">
<path fill-rule="evenodd" clip-rule="evenodd" d="M132.961 47.2721H132.953C132.941 47.2721 132.933 47.2762 132.925 47.2762C132.896 47.2762 132.872 47.2802 132.843 47.2802C132.364 47.3412 131.986 47.7233 131.933 48.207C127.319 71.9017 114.157 86.8605 89.1584 90.998C88.7072 91.0345 88.3333 91.3638 88.2357 91.8028C88.2357 91.8069 88.2316 91.8109 88.2316 91.815C88.2276 91.8435 88.2194 91.876 88.2194 91.9044C88.2154 91.9126 88.2154 91.9207 88.2154 91.9288C88.2113 91.9532 88.2113 91.9776 88.2113 92.002V92.0467V92.0996C88.2113 92.1239 88.2154 92.1483 88.2194 92.1727C88.2194 92.1808 88.2194 92.1849 88.2235 92.193C88.2276 92.2256 88.2357 92.2581 88.2398 92.2906C88.3495 92.7215 88.7235 93.0385 89.1665 93.0711C114.154 97.2091 127.311 112.164 131.929 135.845V135.849C131.978 136.345 132.368 136.74 132.868 136.788H132.877H132.937H132.986H133.011C133.527 136.768 133.954 136.374 134.007 135.858C138.632 112.163 151.782 97.2041 176.778 93.0666C177.229 93.03 177.607 92.7008 177.705 92.2577C177.705 92.2536 177.709 92.2536 177.709 92.2496C177.713 92.217 177.721 92.1886 177.721 92.1601C177.725 92.152 177.725 92.1439 177.725 92.1357C177.729 92.1114 177.729 92.087 177.729 92.0626V92.0138V91.965C177.729 91.9406 177.725 91.9162 177.721 91.8919C177.721 91.8837 177.721 91.8756 177.717 91.8675C177.713 91.8349 177.709 91.8024 177.7 91.774C177.591 91.339 177.217 91.026 176.774 90.9894C151.787 86.8514 138.637 71.9005 134.011 48.2151C133.962 47.7192 133.572 47.3249 133.072 47.2762H133.064C133.043 47.2721 133.023 47.2721 133.003 47.2721H132.962L132.961 47.2721Z" fill="#24221E"/>
<path fill-rule="evenodd" clip-rule="evenodd" d="M78.2244 125.313H78.2199C78.2132 125.313 78.2087 125.315 78.2042 125.315C78.1885 125.315 78.175 125.317 78.1593 125.317C77.8945 125.351 77.6858 125.562 77.6566 125.829C75.1095 138.91 67.843 147.169 54.0417 149.453C53.7926 149.473 53.5861 149.655 53.5322 149.897C53.5322 149.899 53.53 149.902 53.53 149.904C53.5277 149.92 53.5233 149.938 53.5233 149.953C53.521 149.958 53.521 149.962 53.521 149.967C53.5188 149.98 53.5188 149.994 53.5188 150.007V150.032V150.061C53.5188 150.074 53.521 150.088 53.5233 150.101C53.5233 150.106 53.5233 150.108 53.5255 150.113C53.5277 150.131 53.5322 150.149 53.5345 150.166C53.5951 150.404 53.8015 150.579 54.0461 150.597C67.8411 152.882 75.1052 161.138 77.6548 174.212V174.215C77.6817 174.488 77.8972 174.706 78.1732 174.733H78.1777H78.2113H78.2383H78.2517C78.5367 174.722 78.7724 174.504 78.8016 174.219C81.3554 161.138 88.6152 152.879 102.415 150.595C102.664 150.575 102.873 150.393 102.926 150.148C102.926 150.146 102.929 150.146 102.929 150.144C102.931 150.126 102.935 150.11 102.935 150.094C102.938 150.09 102.938 150.085 102.938 150.081C102.94 150.068 102.94 150.054 102.94 150.041V150.014V149.987C102.94 149.973 102.938 149.96 102.935 149.946C102.935 149.942 102.935 149.937 102.933 149.933C102.931 149.915 102.929 149.897 102.924 149.881C102.864 149.641 102.657 149.468 102.413 149.448C88.6176 147.164 81.3582 138.909 78.8039 125.833C78.777 125.559 78.5615 125.342 78.2855 125.315H78.281C78.2698 125.313 78.2586 125.313 78.2474 125.313H78.2249L78.2244 125.313Z" fill="#24221E"/>
<path fill-rule="evenodd" clip-rule="evenodd" d="M59.7988 55.3559H59.7962C59.7923 55.3559 59.7896 55.3572 59.787 55.3572C59.7778 55.3572 59.7699 55.3585 59.7608 55.3585C59.6059 55.3782 59.4838 55.5016 59.4667 55.6578C57.9769 63.3092 53.7267 68.1397 45.6542 69.4757C45.5085 69.4875 45.3877 69.5939 45.3562 69.7356C45.3562 69.7369 45.3549 69.7383 45.3549 69.7396C45.3536 69.7488 45.351 69.7593 45.351 69.7684C45.3497 69.7711 45.3497 69.7737 45.3497 69.7763C45.3484 69.7842 45.3484 69.7921 45.3484 69.7999V69.8144V69.8315C45.3484 69.8393 45.3497 69.8472 45.351 69.8551C45.351 69.8577 45.351 69.859 45.3523 69.8616C45.3536 69.8721 45.3562 69.8826 45.3575 69.8931C45.393 70.0323 45.5137 70.1347 45.6568 70.1452C53.7256 71.4814 57.9744 76.3107 59.4657 83.9577V83.959C59.4814 84.1192 59.6074 84.2465 59.7689 84.2622H59.7715H59.7912H59.8069H59.8148C59.9815 84.2557 60.1193 84.1283 60.1364 83.9616C61.6302 76.3102 65.8765 71.4798 73.9479 70.1437C74.0936 70.1319 74.2157 70.0256 74.2472 69.8825C74.2472 69.8812 74.2485 69.8812 74.2485 69.8799C74.2498 69.8694 74.2525 69.8602 74.2525 69.851C74.2538 69.8484 74.2538 69.8458 74.2538 69.8431C74.2551 69.8353 74.2551 69.8274 74.2551 69.8195V69.8038V69.788C74.2551 69.7801 74.2538 69.7723 74.2525 69.7644C74.2525 69.7618 74.2525 69.7591 74.2511 69.7565C74.2498 69.746 74.2485 69.7355 74.2459 69.7263C74.2105 69.5859 74.0897 69.4848 73.9466 69.473C65.8779 68.1367 61.6318 63.3088 60.1378 55.6604C60.122 55.5003 59.996 55.373 59.8346 55.3572H59.8319C59.8254 55.3559 59.8188 55.3559 59.8123 55.3559H59.7991L59.7988 55.3559Z" fill="#24221E"/>
</svg>
