<svg width="270" height="200" viewBox="0 0 270 200" fill="none" xmlns="http://www.w3.org/2000/svg">
<rect width="270" height="200" rx="20" fill="#6F9CB6"/>
<path d="M158.843 70.2062C150.744 71.4449 142.809 74.007 136.033 78.7182V121.197C143.14 117.396 150.744 114.834 158.843 114.421V70.2062ZM134.546 127.893C125.372 123.431 115.703 120.538 105.537 120.289C104.957 120.289 104.462 119.794 104.462 119.297V76.9003L103.47 76.8183V122.108C114.462 122.52 124.956 125.331 134.956 129.794C145.037 125.331 155.452 122.52 166.442 122.108V76.8183L165.449 76.9003V119.297C165.449 119.791 165.036 120.289 164.457 120.289C154.29 120.538 144.621 123.431 135.448 127.893C135.199 128.057 134.786 128.057 134.54 127.893H134.546ZM109.01 73.6789L106.612 73.266V118.225C116.529 118.638 126.034 121.449 134.959 125.829C143.966 121.449 153.388 118.638 163.388 118.225V73.266L160.99 73.6789V115.414C160.99 115.993 160.495 116.406 159.915 116.488C150.99 116.652 143.304 119.63 135.536 123.844C134.874 124.339 134.13 123.68 133.553 123.349C126.28 119.381 118.43 116.655 110.082 116.488C109.502 116.406 109.007 115.993 109.007 115.414V73.6791L109.01 73.6789ZM111.159 70.209V114.424C119.258 114.837 126.863 117.399 133.969 121.2V78.7208C127.109 74.0095 119.258 71.4471 111.159 70.2088V70.209Z" fill="white"/>
</svg>
